HIERARCHY
ROOT Hips
{
	OFFSET -0.001795 -0.223333 0.028219
	CHANNELS 6 Xposition Yposition Zposition Zrotation Yrotation Xrotation 
	JOINT LeftUpLeg
	{
		OFFSET 0.069520 -0.091406 -0.006815
		CHANNELS 3 Zrotation Yrotation Xrotation
		JOINT LeftLeg
		{
			OFFSET 0.034277 -0.375199 -0.004496
			CHANNELS 3 Zrotation Yrotation Xrotation
			JOINT LeftFoot
			{
				OFFSET -0.013596 -0.397961 -0.043693
				CHANNELS 3 Zrotation Yrotation Xrotation
				JOINT LeftToe
				{
					OFFSET 0.026358 -0.055791 0.119288
					CHANNELS 3 Zrotation Yrotation Xrotation
					End Site
					{
						OFFSET 0.000000 0.000000 0.000000
					}
				}
			}
		}
	}
	JOINT RightUpLeg
	{
		OFFSET -0.067670 -0.090522 -0.004320
		CHANNELS 3 Zrotation Yrotation Xrotation
		JOINT RightLeg
		{
			OFFSET -0.038290 -0.382569 -0.008850
			CHANNELS 3 Zrotation Yrotation Xrotation
			JOINT RightFoot
			{
				OFFSET 0.015774 -0.398415 -0.042312
				CHANNELS 3 Zrotation Yrotation Xrotation
				JOINT RightToe
				{
					OFFSET -0.025372 -0.048144 0.123348
					CHANNELS 3 Zrotation Yrotation Xrotation
					End Site
					{
						OFFSET 0.000000 0.000000 0.000000
					}
				}
			}
		}
	}
	JOINT Spine
	{
		OFFSET -0.002533 0.108963 -0.026696
		CHANNELS 3 Zrotation Yrotation Xrotation
		JOINT Spine1
		{
			OFFSET 0.005487 0.135180 0.001092
			CHANNELS 3 Zrotation Yrotation Xrotation
			JOINT Spine2
			{
				OFFSET 0.001457 0.052922 0.025425
				CHANNELS 3 Zrotation Yrotation Xrotation
				JOINT Neck
				{
					OFFSET -0.002778 0.213870 -0.042857
					CHANNELS 3 Zrotation Yrotation Xrotation
					JOINT Head
					{
						OFFSET 0.005152 0.064970 0.051349
						CHANNELS 3 Zrotation Yrotation Xrotation
						End Site
						{
							OFFSET 0.000000 0.000000 0.000000
						}
					}
				}
				JOINT LeftShoulder
				{
					OFFSET 0.078845 0.121749 -0.034090
					CHANNELS 3 Zrotation Yrotation Xrotation
					JOINT LeftArm
					{
						OFFSET 0.090977 0.030469 -0.008868
						CHANNELS 3 Zrotation Yrotation Xrotation
						JOINT LeftForeArm
						{
							OFFSET 0.259612 -0.012772 -0.027456
							CHANNELS 3 Zrotation Yrotation Xrotation
							JOINT LeftHand
							{
								OFFSET 0.249234 0.008986 -0.001171
								CHANNELS 3 Zrotation Yrotation Xrotation
								End Site
								{
									OFFSET 0.000000 0.000000 0.000000
								}
							}
						}
					}
				}
				JOINT RightShoulder
				{
					OFFSET -0.081759 0.118833 -0.038615
					CHANNELS 3 Zrotation Yrotation Xrotation
					JOINT RightArm
					{
						OFFSET -0.096012 0.032551 -0.009143
						CHANNELS 3 Zrotation Yrotation Xrotation
						JOINT RightForeArm
						{
							OFFSET -0.253742 -0.013329 -0.021401
							CHANNELS 3 Zrotation Yrotation Xrotation
							JOINT RightHand
							{
								OFFSET -0.255298 0.007772 -0.005559
								CHANNELS 3 Zrotation Yrotation Xrotation
								End Site
								{
									OFFSET 0.000000 0.000000 0.000000
								}
							}
						}
					}
				}
			}
		}
	}
}
MOTION
Frames: 7
Frame Time: 0.050000
-1.692628 0.975329 1.422400 3.368528 46.280453 2.381924 -4.378070 -2.242051 -15.450453 -9.324419 -6.722625 44.263117 -4.694755 5.922475 20.068724 0.000000 0.000000 0.000000 -0.180753 0.142283 -16.575526 -1.096037 -0.955596 14.902748 -1.661435 -2.269837 12.692199 0.000000 0.000000 0.000000 6.043710 -0.257475 0.824722 -8.770845 3.106136 -20.792370 1.474765 10.660712 30.661218 8.143832 4.227858 -30.677155 0.000000 0.000000 0.000000 -1.699228 1.331577 -3.048049 -63.012248 5.605301 -18.967591 -67.441724 -73.606405 43.335475 0.000000 0.000000 0.000000 5.070131 -10.716558 -3.410268 71.284839 20.409349 13.765916 -99.433054 72.894365 -52.678471 0.000000 0.000000 0.000000 
-1.694972 0.969830 1.410063 2.450399 44.371599 1.923455 -4.328685 -1.968710 -14.322087 -4.397196 -8.309810 43.599541 -7.260044 1.022659 17.911781 0.000000 0.000000 0.000000 0.392715 0.146135 -19.568853 -2.085497 -1.003448 18.347573 0.680606 1.570421 11.852482 0.000000 0.000000 0.000000 5.984882 -0.219883 0.470305 -8.145277 3.068421 -20.419862 1.387362 11.980053 30.417026 9.402598 3.469083 -29.813267 0.000000 0.000000 0.000000 -1.559495 2.193052 -3.262897 -63.950613 5.060058 -19.135218 -71.270699 -72.402202 45.640011 0.000000 0.000000 0.000000 5.881192 -10.929117 -3.243622 71.648386 18.700590 12.486821 -103.848149 76.234758 -60.049175 0.000000 0.000000 0.000000 
-1.699130 0.963446 1.393806 1.491252 43.097125 1.354037 -3.871838 -1.288252 -11.256424 -0.330958 -8.437584 39.511624 -8.980087 -4.625100 13.690244 0.000000 0.000000 0.000000 1.183530 0.221738 -21.834438 -3.371008 -0.690756 19.922611 2.185060 4.084033 11.149552 0.000000 0.000000 0.000000 6.266056 -0.219008 0.259583 -9.022168 3.183046 -20.656057 2.063183 11.647797 31.220623 10.718821 2.696488 -30.237373 0.000000 0.000000 0.000000 -1.458678 2.051385 -3.071148 -64.500616 5.062714 -19.412184 -79.792400 -71.423772 52.415006 0.000000 0.000000 0.000000 6.976960 -12.096483 -3.608791 71.328076 16.668903 10.427228 -106.076082 80.451743 -66.933700 0.000000 0.000000 0.000000 
-1.705442 0.955508 1.372094 0.409917 39.617386 1.209626 -2.979669 -0.762048 -8.283993 1.541689 -6.818158 34.123489 -8.304412 -8.937215 7.854739 0.000000 0.000000 0.000000 2.549817 0.579002 -24.482815 -4.987030 0.004604 20.909759 4.204386 7.207301 11.643875 0.000000 0.000000 0.000000 6.259108 -0.174697 -0.219084 -7.922176 3.056259 -20.205340 1.815319 12.839417 30.885563 12.323713 1.836567 -31.480766 0.000000 0.000000 0.000000 -1.545068 2.556776 -3.167806 -65.430093 4.968167 -19.575934 -83.690693 -68.477956 53.439182 0.000000 0.000000 0.000000 7.460680 -14.169293 -4.667960 72.085240 13.424011 8.405692 -101.486349 84.607685 -66.919889 0.000000 0.000000 0.000000 
-1.714962 0.949244 1.344664 0.337576 36.894019 1.495215 -2.939583 -0.424869 -5.730131 2.820839 -4.969432 27.523089 -7.741286 -12.236134 3.792686 0.000000 0.000000 0.000000 1.367771 0.182469 -27.650655 -3.417557 -0.371905 21.810389 5.508319 8.601132 13.513432 0.000000 0.000000 0.000000 5.475143 -0.134843 -0.238543 -7.761827 2.935127 -21.233767 2.107791 11.056838 33.159572 12.540002 1.637898 -34.465292 0.000000 0.000000 0.000000 -2.452387 4.660559 -4.157572 -64.848591 3.565757 -18.042967 -85.033416 -68.272630 55.457787 0.000000 0.000000 0.000000 9.721090 -16.387633 -5.477159 72.010332 11.978436 5.833368 -140.402183 89.840737 -111.039925 0.000000 0.000000 0.000000 
-1.727715 0.949077 1.314121 -1.462357 32.193076 1.518644 -1.225795 -0.470693 -5.928758 1.556066 -3.610875 25.103150 -4.267911 -9.556185 -0.326511 0.000000 0.000000 0.000000 2.813324 0.930531 -29.666370 -2.046306 -0.208740 19.314617 6.853768 9.218283 17.521730 0.000000 0.000000 0.000000 5.695600 -0.147885 -0.085216 -6.592262 2.626073 -21.874083 1.708551 11.879419 32.721309 13.812853 0.461057 -34.185316 0.000000 0.000000 0.000000 -1.127376 3.279508 -2.691696 -65.636491 0.392087 -16.611295 -81.793855 -69.811215 55.039443 0.000000 0.000000 0.000000 10.356812 -18.224681 -6.608332 72.200339 7.547769 2.713513 83.053701 83.599168 103.572764 0.000000 0.000000 0.000000 
-1.741570 0.952639 1.284929 -1.988561 27.244278 2.299285 -0.152967 -0.594273 -6.897327 -0.759770 -2.161142 22.364537 -1.836854 -3.913877 0.031500 0.000000 0.000000 0.000000 2.485009 1.301765 -30.013403 -0.263576 -0.296158 16.376182 6.957608 8.884078 17.717754 0.000000 0.000000 0.000000 5.779351 -0.186528 0.312109 -7.062844 2.618522 -22.708823 2.304368 10.125451 32.407071 13.346154 0.002780 -35.248310 0.000000 0.000000 0.000000 -1.803568 5.097624 -3.239080 -65.277733 -0.631330 -15.000854 -76.598237 -70.754322 53.426466 0.000000 0.000000 0.000000 8.515330 -19.237764 -7.696568 74.050755 2.641872 -0.451286 94.103406 76.933091 105.643485 0.000000 0.000000 0.000000 
